#N canvas 600 547 450 300 10;
#X obj 121 9 bng 15 250 50 0 empty empty empty 17 7 0 10 -262144 -1
-1;
#X obj 132 146 print;
#X obj 123 51 4;
#X obj 120 100 digitos;
#X connect 0 0 2 0;
#X connect 2 0 3 0;
#X connect 3 0 1 0;
